0
SECTION
2
HEADER
9
$INSUNITS
70
4
9
$ACADVER
1
AC1014
9
$HANDSEED
5
FFFF
0
ENDSEC
0
SECTION
2
TABLES
0
TABLE
2
VPORT
5
8
100
AcDbSymbolTable
0
ENDTAB
0
TABLE
2
LTYPE
5
5
100
AcDbSymbolTable
0
LTYPE
5
14
100
AcDbSymbolTableRecord
100
AcDbLinetypeTableRecord
2
BYBLOCK
70
0
0
LTYPE
5
15
100
AcDbSymbolTableRecord
100
AcDbLinetypeTableRecord
2
BYLAYER
70
0
0
ENDTAB
0
TABLE
2
LAYER
5
2
100
AcDbSymbolTable
70
2
0
LAYER
5
50
100
AcDbSymbolTableRecord
100
AcDbLayerTableRecord
2
0
70
0
6
CONTINUOUS
0
ENDTAB
0
TABLE
2
STYLE
5
3
100
AcDbSymbolTable
70
1
0
STYLE
5
11
100
AcDbSymbolTableRecord
100
AcDbTextStyleTableRecord
2
STANDARD
70
0
0
ENDTAB
0
TABLE
2
VIEW
5
6
100
AcDbSymbolTable
70
0
0
ENDTAB
0
TABLE
2
UCS
5
7
100
AcDbSymbolTable
70
0
0
ENDTAB
0
TABLE
2
APPID
5
9
100
AcDbSymbolTable
70
2
0
APPID
5
12
100
AcDbSymbolTableRecord
100
AcDbRegAppTableRecord
2
ACAD
70
0
0
ENDTAB
0
TABLE
2
DIMSTYLE
5
A
100
AcDbSymbolTable
70
1
0
ENDTAB
0
TABLE
2
BLOCK_RECORD
5
1
100
AcDbSymbolTable
70
1
0
BLOCK_RECORD
5
1F
100
AcDbSymbolTableRecord
100
AcDbBlockTableRecord
2
*MODEL_SPACE
0
BLOCK_RECORD
5
1B
100
AcDbSymbolTableRecord
100
AcDbBlockTableRecord
2
*PAPER_SPACE
0
ENDTAB
0
ENDSEC
0
SECTION
2
BLOCKS
0
BLOCK
5
20
100
AcDbEntity
100
AcDbBlockBegin
2
*MODEL_SPACE
0
ENDBLK
5
21
100
AcDbEntity
100
AcDbBlockEnd
0
BLOCK
5
1C
100
AcDbEntity
100
AcDbBlockBegin
2
*PAPER_SPACE
0
ENDBLK
5
1D
100
AcDbEntity
100
AcDbBlockEnd
0
ENDSEC
0
SECTION
2
ENTITIES
0
SPLINE
5
100
100
AcDbEntity
8
0
100
AcDbSpline
70
1064
71
5
72
71
73
65
74
0
42
0.000000001
43
0.0000000001
44
0.0000000001
40
0
40
0
40
0
40
0
40
0
40
0
40
0.016666666666666666
40
0.033333333333333333
40
0.050000000000000003
40
0.066666666666666666
40
0.083333333333333329
40
0.099999999999999992
40
0.11666666666666665
40
0.13333333333333333
40
0.14999999999999999
40
0.16666666666666666
40
0.18333333333333332
40
0.19999999999999998
40
0.21666666666666665
40
0.23333333333333331
40
0.24999999999999997
40
0.26666666666666666
40
0.28333333333333333
40
0.29999999999999999
40
0.31666666666666665
40
0.33333333333333331
40
0.34999999999999998
40
0.36666666666666664
40
0.3833333333333333
40
0.39999999999999997
40
0.41666666666666663
40
0.43333333333333329
40
0.44999999999999996
40
0.46666666666666662
40
0.48333333333333328
40
0.49999999999999994
40
0.51666666666666661
40
0.53333333333333333
40
0.55000000000000004
40
0.56666666666666676
40
0.58333333333333348
40
0.6000000000000002
40
0.61666666666666692
40
0.63333333333333364
40
0.65000000000000036
40
0.66666666666666707
40
0.68333333333333379
40
0.70000000000000051
40
0.71666666666666723
40
0.73333333333333395
40
0.75000000000000067
40
0.76666666666666738
40
0.7833333333333341
40
0.80000000000000082
40
0.81666666666666754
40
0.83333333333333426
40
0.85000000000000098
40
0.8666666666666677
40
0.88333333333333441
40
0.90000000000000113
40
0.91666666666666785
40
0.93333333333333457
40
0.95000000000000129
40
0.96666666666666801
40
0.98333333333333472
40
1
40
1
40
1
40
1
40
1
40
1
10
-266.25090802595281
20
204.78530766870131
30
0
10
-266.19379343921372
20
204.73346399050223
30
0
10
-265.78280970400834
20
204.35043574856633
30
0
10
-264.2756200195243
20
202.93743138556522
30
0
10
-260.79842864973
20
199.69405195850342
30
0
10
-255.48588958127621
20
194.88304514333998
30
0
10
-250.62308545897864
20
190.77767848430565
30
0
10
-246.57152789788771
20
187.80763704400158
30
0
10
-242.83913112375973
20
185.54735794325154
30
0
10
-238.65274274340686
20
183.26043082378936
30
0
10
-233.48448181192427
20
180.39132498840385
30
0
10
-227.35032270244113
20
176.85779357006967
30
0
10
-220.54503772368963
20
172.83493558580477
30
0
10
-213.49787679751216
20
168.6504637619532
30
0
10
-206.59496867944267
20
164.64494451620061
30
0
10
-199.97810869070193
20
161.02330573818594
30
0
10
-193.56496839195844
20
157.84324594963005
30
0
10
-187.16918051059966
20
155.06814912659979
30
0
10
-180.58941228320117
20
152.59896837536223
30
0
10
-173.70723481824942
20
150.31402468963711
30
0
10
-166.59222294303206
20
148.1072647672693
30
0
10
-159.42411833843471
20
145.89608115478538
30
0
10
-152.39639385698379
20
143.62577262764776
30
0
10
-145.62911645152238
20
141.27504105009703
30
0
10
-139.07211332725078
20
138.86173391375473
30
0
10
-132.4284344967931
20
136.44674939305932
30
0
10
-125.26640168561217
20
134.11693940397902
30
0
10
-117.11475777371832
20
131.97001478571346
30
0
10
-107.56722092174812
20
130.09827167219629
30
0
10
-96.376021149746151
20
128.57382797714911
30
0
10
-83.568934712478935
20
127.43053980229421
30
0
10
-69.412430933982833
20
126.66785242035323
30
0
10
-54.338965855360108
20
126.25976902745904
30
0
10
-38.886787347475604
20
126.1620258896408
30
0
10
-23.63491384627816
20
126.31995678779701
30
0
10
-9.1399201038299811
20
126.67607562200116
30
0
10
4.1271568714826454
20
127.17766604653394
30
0
10
15.846205604013075
20
127.78460400417961
30
0
10
25.907749779659426
20
128.47654602067885
30
0
10
34.488676491913061
20
129.26188841933219
30
0
10
41.964097944538857
20
130.16853184239631
30
0
10
48.801187688696849
20
131.2326594142782
30
0
10
55.455087435482753
20
132.48769378151161
30
0
10
62.274322767873983
20
133.9544127644688
30
0
10
69.375787823556891
20
135.62741553275063
30
0
10
76.674255275454499
20
137.48004601516874
30
0
10
83.980356506907441
20
139.4774621224569
30
0
10
91.078320729809619
20
141.58735421881971
30
0
10
97.807888203278509
20
143.79102725031228
30
0
10
104.15548861763568
20
146.09596307949178
30
0
10
110.219145919973
20
148.52976222012165
30
0
10
116.15202690278922
20
151.13097201162032
30
0
10
122.1175057952903
20
153.94159253202565
30
0
10
128.23039573934733
20
156.99757575339365
30
0
10
134.53821435590245
20
160.32513301440378
30
0
10
141.0459283606464
20
163.94338015165073
30
0
10
147.72983121630321
20
167.86534943463661
30
0
10
154.55477126954722
20
172.09960164846285
30
0
10
161.49244809736518
20
176.65168873046201
30
0
10
168.52478034501621
20
181.5249787342955
30
0
10
175.64051657953169
20
186.72111581716976
30
0
10
181.3953718487254
20
191.13670053753665
30
0
10
185.74564981920415
20
194.59383509502632
30
0
10
188.66100268560498
20
196.96320505635524
30
0
10
190.12247085571289
20
198.16404342651367
30
0
0
SPLINE
5
101
100
AcDbEntity
8
0
100
AcDbSpline
70
1064
71
5
72
66
73
60
74
0
42
0.000000001
43
0.0000000001
44
0.0000000001
40
0
40
0
40
0
40
0
40
0
40
0
40
0.018181818181818181
40
0.036363636363636362
40
0.054545454545454543
40
0.072727272727272724
40
0.090909090909090912
40
0.1090909090909091
40
0.12727272727272729
40
0.14545454545454548
40
0.16363636363636366
40
0.18181818181818185
40
0.20000000000000004
40
0.21818181818181823
40
0.23636363636363641
40
0.25454545454545457
40
0.27272727272727276
40
0.29090909090909095
40
0.30909090909090914
40
0.32727272727272733
40
0.34545454545454551
40
0.3636363636363637
40
0.38181818181818189
40
0.40000000000000008
40
0.41818181818181827
40
0.43636363636363645
40
0.45454545454545464
40
0.47272727272727283
40
0.49090909090909102
40
0.50909090909090915
40
0.52727272727272734
40
0.54545454545454553
40
0.56363636363636371
40
0.5818181818181819
40
0.60000000000000009
40
0.61818181818181828
40
0.63636363636363646
40
0.65454545454545465
40
0.67272727272727284
40
0.69090909090909103
40
0.70909090909090922
40
0.7272727272727274
40
0.74545454545454559
40
0.76363636363636378
40
0.78181818181818197
40
0.80000000000000016
40
0.81818181818181834
40
0.83636363636363653
40
0.85454545454545472
40
0.87272727272727291
40
0.89090909090909109
40
0.90909090909090928
40
0.92727272727272747
40
0.94545454545454566
40
0.96363636363636385
40
0.98181818181818203
40
1
40
1
40
1
40
1
40
1
40
1
10
190.12247085571289
20
198.16404342651367
30
0
10
190.7692914536014
20
197.51734026088235
30
0
10
192.1194596515667
20
196.14576955379576
30
0
10
194.3142867192517
20
193.85392723812816
30
0
10
197.58010907162929
20
190.32885284464012
30
0
10
202.21110737478358
20
185.15895708242618
30
0
10
207.33920365792341
20
179.28272763699866
30
0
10
212.85785015836112
20
172.81863178210568
30
0
10
218.59334012991422
20
165.96020108970211
30
0
10
224.34496775856869
20
158.93220769144247
30
0
10
229.91895628666882
20
151.95366027044881
30
0
10
235.16572043133965
20
145.19723632488098
30
0
10
240.01361372526151
20
138.75235123682725
30
0
10
244.51017953270588
20
132.58060496779603
30
0
10
248.78296201180842
20
126.55205088875839
30
0
10
252.98968610772829
20
120.49184658702593
30
0
10
257.2749412585012
20
114.22096528417697
30
0
10
261.71800342696764
20
107.60432034970975
30
0
10
266.30383659538859
20
100.58002366329131
30
0
10
270.9555854814613
20
93.138926528584619
30
0
10
275.55581810200675
20
85.313313643793478
30
0
10
279.9718371766466
20
77.162178944135434
30
0
10
284.07984166864765
20
68.757824540864434
30
0
10
287.78776460443123
20
60.172542548542509
30
0
10
291.03022126561797
20
51.474090604701004
30
0
10
293.76544341714884
20
42.720721498686132
30
0
10
295.97151123154697
20
33.955909892383694
30
0
10
297.64295141495512
20
25.204235288086899
30
0
10
298.78720401260313
20
16.464105819179416
30
0
10
299.4212963505272
20
7.7128179911535906
30
0
10
299.56863579583683
20
-1.078657265860719
30
0
10
299.25576057717427
20
-9.933219680724779
30
0
10
298.50920376293556
20
-18.855245044344692
30
0
10
297.35213608009593
20
-27.815689256013805
30
0
10
295.80167457319487
20
-36.745807704216986
30
0
10
293.86836539520795
20
-45.561730348627435
30
0
10
291.55538584403882
20
-54.183556209149437
30
0
10
288.85768132740299
20
-62.557390812430796
30
0
10
285.76150453286431
20
-70.674348688263038
30
0
10
282.2427577026935
20
-78.59576946758618
30
0
10
278.27569931068359
20
-86.428156541109587
30
0
10
273.84302133894272
20
-94.290893365376505
30
0
10
268.94606644192072
20
-102.28506148765454
30
0
10
263.61368039642957
20
-110.46508974838878
30
0
10
257.91501231061471
20
-118.80100971759862
30
0
10
251.9586582821363
20
-127.17414663712987
30
0
10
245.87305901200881
20
-135.41878150081214
30
0
10
239.79194397871038
20
-143.35156644826614
30
0
10
233.83700852420355
20
-150.80741718199729
30
0
10
228.10348454675008
20
-157.66902681928013
30
0
10
222.6401727285218
20
-163.90814614203194
30
0
10
217.44791275464257
20
-169.5880064253387
30
0
10
212.49847974817663
20
-174.82281999706404
30
0
10
207.74836835091071
20
-179.74793528619117
30
0
10
203.15396973862548
20
-184.48721652870722
30
0
10
198.68781740906232
20
-189.11771477518468
30
0
10
195.20668671747183
20
-192.7652946635539
30
0
10
192.64533481674607
20
-195.47484174873188
30
0
10
190.9597602183398
20
-197.26958000152391
30
0
10
190.12247085571289
20
-198.16404342651367
30
0
0
SPLINE
5
102
100
AcDbEntity
8
0
100
AcDbSpline
70
1064
71
5
72
66
73
60
74
0
42
0.000000001
43
0.0000000001
44
0.0000000001
40
0
40
0
40
0
40
0
40
0
40
0
40
0.018181818181818181
40
0.036363636363636362
40
0.054545454545454543
40
0.072727272727272724
40
0.090909090909090912
40
0.1090909090909091
40
0.12727272727272729
40
0.14545454545454548
40
0.16363636363636366
40
0.18181818181818185
40
0.20000000000000004
40
0.21818181818181823
40
0.23636363636363641
40
0.25454545454545457
40
0.27272727272727276
40
0.29090909090909095
40
0.30909090909090914
40
0.32727272727272733
40
0.34545454545454551
40
0.3636363636363637
40
0.38181818181818189
40
0.40000000000000008
40
0.41818181818181827
40
0.43636363636363645
40
0.45454545454545464
40
0.47272727272727283
40
0.49090909090909102
40
0.50909090909090915
40
0.52727272727272734
40
0.54545454545454553
40
0.56363636363636371
40
0.5818181818181819
40
0.60000000000000009
40
0.61818181818181828
40
0.63636363636363646
40
0.65454545454545465
40
0.67272727272727284
40
0.69090909090909103
40
0.70909090909090922
40
0.7272727272727274
40
0.74545454545454559
40
0.76363636363636378
40
0.78181818181818197
40
0.80000000000000016
40
0.81818181818181834
40
0.83636363636363653
40
0.85454545454545472
40
0.87272727272727291
40
0.89090909090909109
40
0.90909090909090928
40
0.92727272727272747
40
0.94545454545454566
40
0.96363636363636385
40
0.98181818181818203
40
1
40
1
40
1
40
1
40
1
40
1
10
-266.25090802595281
20
-191.54277918432604
30
0
10
-266.89772862385087
20
-190.89607601870003
30
0
10
-268.24789682183189
20
-189.52450531162219
30
0
10
-270.44272388953038
20
-187.23266299596165
30
0
10
-273.70854624190713
20
-183.70758860247253
30
0
10
-278.33954454504186
20
-178.53769284024796
30
0
10
-283.46764082815861
20
-172.66146339480872
30
0
10
-288.98628732858157
20
-166.19736753990799
30
0
10
-294.72177730013198
20
-159.3389368475024
30
0
10
-300.47340492879317
20
-152.31094344924549
30
0
10
-306.04739345690183
20
-145.3323960282566
30
0
10
-311.29415760157974
20
-138.57597208269343
30
0
10
-316.14205089550535
20
-132.13108699464226
30
0
10
-320.63861670295063
20
-125.95934072561198
30
0
10
-324.91139918205243
20
-119.93078664657348
30
0
10
-329.11812327796974
20
-113.87058234483943
30
0
10
-333.40337842874033
20
-107.59970104198885
30
0
10
-337.84644059720478
20
-100.98305610752033
30
0
10
-342.43227376562544
20
-93.958759421101675
30
0
10
-347.08402265169838
20
-86.517662286395506
30
0
10
-351.6842552722448
20
-78.692049401605274
30
0
10
-356.10027434688607
20
-70.540914701947941
30
0
10
-360.20827883889098
20
-62.136560298677182
30
0
10
-363.91620177467814
20
-53.551278306355059
30
0
10
-367.15865843586687
20
-44.852826362513234
30
0
10
-369.89388058739587
20
-36.099457256498169
30
0
10
-372.09994840178922
20
-27.334645650195796
30
0
10
-373.77138858519203
20
-18.582971045899477
30
0
10
-374.91564118283605
20
-9.8428415769926403
30
0
10
-375.54973352075831
20
-1.0915537489673195
30
0
10
-375.69707296606907
20
7.6999215080469172
30
0
10
-375.38419774741067
20
16.55448392291154
30
0
10
-374.63764093317684
20
25.476509286532547
30
0
10
-373.48057325034091
20
34.436953498203032
30
0
10
-371.93011174344178
20
43.3670719464073
30
0
10
-369.99680256545417
20
52.182994590818161
30
0
10
-367.68382301428221
20
60.804820451339424
30
0
10
-364.98611849764313
20
69.178655054619
30
0
10
-361.88994170310201
20
77.295612930448584
30
0
10
-358.37119487292972
20
85.217033709769169
30
0
10
-354.40413648091953
20
93.049420783291126
30
0
10
-349.9714585091794
20
100.91215760755851
30
0
10
-345.07450361215911
20
108.90632572983925
30
0
10
-339.74211756667057
20
117.08635399057832
30
0
10
-334.04344948085935
20
125.42227395979396
30
0
10
-328.08709545238406
20
133.79541087932984
30
0
10
-322.00149618225839
20
142.0400457430141
30
0
10
-315.92038114895865
20
149.97283069046586
30
0
10
-309.96544569444757
20
157.42868142419042
30
0
10
-304.23192171698651
20
164.29029106146319
30
0
10
-298.76860989875036
20
170.52941038420485
30
0
10
-293.57634992486629
20
176.20927066750585
30
0
10
-288.62691691840189
20
181.4440842392342
30
0
10
-283.87680552114716
20
186.36919952837474
30
0
10
-279.28240690887935
20
191.10848077091134
30
0
10
-274.81625457933126
20
195.73897901740645
30
0
10
-271.33512388774136
20
199.38655890577678
30
0
10
-268.77377198700549
20
202.09610599094287
30
0
10
-267.0881973885871
20
203.89084424372038
30
0
10
-266.25090802595281
20
204.78530766870131
30
0
0
LINE
5
103
100
AcDbEntity
8
0
100
AcDbLine
10
-268.54601788374384
20
206.86860974076794
30
0
11
-263.95579816816189
21
202.70200559663471
31
0
0
SPLINE
5
104
100
AcDbEntity
8
0
100
AcDbSpline
70
1064
71
5
72
71
73
65
74
0
42
0.000000001
43
0.0000000001
44
0.0000000001
40
0
40
0
40
0
40
0
40
0
40
0
40
0.016666666666666666
40
0.033333333333333333
40
0.050000000000000003
40
0.066666666666666666
40
0.083333333333333329
40
0.099999999999999992
40
0.11666666666666665
40
0.13333333333333333
40
0.14999999999999999
40
0.16666666666666666
40
0.18333333333333332
40
0.19999999999999998
40
0.21666666666666665
40
0.23333333333333331
40
0.24999999999999997
40
0.26666666666666666
40
0.28333333333333333
40
0.29999999999999999
40
0.31666666666666665
40
0.33333333333333331
40
0.34999999999999998
40
0.36666666666666664
40
0.3833333333333333
40
0.39999999999999997
40
0.41666666666666663
40
0.43333333333333329
40
0.44999999999999996
40
0.46666666666666662
40
0.48333333333333328
40
0.49999999999999994
40
0.51666666666666661
40
0.53333333333333333
40
0.55000000000000004
40
0.56666666666666676
40
0.58333333333333348
40
0.6000000000000002
40
0.61666666666666692
40
0.63333333333333364
40
0.65000000000000036
40
0.66666666666666707
40
0.68333333333333379
40
0.70000000000000051
40
0.71666666666666723
40
0.73333333333333395
40
0.75000000000000067
40
0.76666666666666738
40
0.7833333333333341
40
0.80000000000000082
40
0.81666666666666754
40
0.83333333333333426
40
0.85000000000000098
40
0.8666666666666677
40
0.88333333333333441
40
0.90000000000000113
40
0.91666666666666785
40
0.93333333333333457
40
0.95000000000000129
40
0.96666666666666801
40
0.98333333333333472
40
1
40
1
40
1
40
1
40
1
40
1
10
190.12247085571278
20
-198.16404342651379
30
0
10
189.60565021801483
20
-197.41997024963132
30
0
10
188.53643618917172
20
-195.93700879558747
30
0
10
186.82591306782143
20
-193.72811261721725
30
0
10
184.33157443938404
20
-190.8140992718977
30
0
10
180.87053636841202
20
-187.21540127791769
30
0
10
177.10358340994992
20
-183.63734164094822
30
0
10
173.11123229767983
20
-180.0305454039717
30
0
10
168.98089745753677
20
-176.33855306401978
30
0
10
164.76284599955108
20
-172.52156495749193
30
0
10
160.42132651754912
20
-168.58175997837182
30
0
10
155.80960723584693
20
-164.5786698813225
30
0
10
150.74271010922138
20
-160.60325205076307
30
0
10
145.05350100888509
20
-156.75882707182555
30
0
10
138.65784772065956
20
-153.13875355153198
30
0
10
131.60890959392205
20
-149.80718014153993
30
0
10
124.05486858125721
20
-146.80238025560635
30
0
10
116.20328524958113
20
-144.13866223721436
30
0
10
108.2828705613059
20
-141.80870429022801
30
0
10
100.50694722929606
20
-139.78579129937881
30
0
10
93.034787491418342
20
-138.02570057583819
30
0
10
85.953541723968101
20
-136.47421728938644
30
0
10
79.261193408924299
20
-135.07530067833403
30
0
10
72.850410378562955
20
-133.77880853413569
30
0
10
66.488543334831519
20
-132.54886692226549
30
0
10
59.808609376612118
20
-131.37066151416144
30
0
10
52.389407672105939
20
-130.24512065993153
30
0
10
43.826062067432062
20
-129.18480569745557
30
0
10
33.806150121770003
20
-128.20929878680141
30
0
10
22.179195545609577
20
-127.34096552624193
30
0
10
9.0409662827855488
20
-126.60017779730265
30
0
10
-5.3099781495774092
20
-126.00479439104227
30
0
10
-20.43514363230684
20
-125.57027787487863
30
0
10
-35.811900157898734
20
-125.30958258271298
30
0
10
-50.891927143017305
20
-125.23313259955947
30
0
10
-65.158703903205165
20
-125.34875239097376
30
0
10
-78.184810702683421
20
-125.66161372291177
30
0
10
-89.690925959041749
20
-126.17415992706222
30
0
10
-99.600902630659704
20
-126.88605062921296
30
0
10
-108.10818252107593
20
-127.7940397566892
30
0
10
-115.58518532283136
20
-128.89267708282844
30
0
10
-122.48231503547427
20
-130.17505236134861
30
0
10
-129.22617494286459
20
-131.63355914324603
30
0
10
-136.12889896828722
20
-133.26055382906222
30
0
10
-143.2652388517123
20
-135.04929033355634
30
0
10
-150.51195206341018
20
-136.99347028283751
30
0
10
-157.65784013919227
20
-139.08620998205382
30
0
10
-164.49299870755493
20
-141.31913996108429
30
0
10
-170.90215460106953
20
-143.68156028074839
30
0
10
-176.9684627931986
20
-146.159253888672
30
0
10
-182.90864645500449
20
-148.73793757059397
30
0
10
-188.98420523013951
20
-151.40751069674877
30
0
10
-195.42839022090737
20
-154.16553842637705
30
0
10
-202.34967734585555
20
-157.02222635710052
30
0
10
-209.71035649084365
20
-160.00029765477393
30
0
10
-217.38181730221118
20
-163.12960793520483
30
0
10
-225.17999217405531
20
-166.44308864582942
30
0
10
-232.90719097268936
20
-169.9723430777743
30
0
10
-240.39487654994252
20
-173.74294085833185
30
0
10
-247.53450108160951
20
-177.77121883017003
30
0
10
-254.26039075333475
20
-182.06679953428394
30
0
10
-259.28458069497435
20
-185.72068791679106
30
0
10
-262.84750710557887
20
-188.58397351880657
30
0
10
-265.13163424479342
20
-190.54741344605651
30
0
10
-266.25090802595281
20
-191.54277918432604
30
0
0
SPLINE
5
105
100
AcDbEntity
8
0
100
AcDbSpline
70
1064
71
5
72
56
73
50
74
0
42
0.000000001
43
0.0000000001
44
0.0000000001
40
0
40
0
40
0
40
0
40
0
40
0
40
0.022222222222222223
40
0.044444444444444446
40
0.066666666666666666
40
0.088888888888888892
40
0.11111111111111112
40
0.13333333333333333
40
0.15555555555555556
40
0.17777777777777778
40
0.20000000000000001
40
0.22222222222222224
40
0.24444444444444446
40
0.26666666666666666
40
0.28888888888888886
40
0.31111111111111106
40
0.33333333333333326
40
0.35555555555555546
40
0.37777777777777766
40
0.39999999999999986
40
0.42222222222222205
40
0.44444444444444425
40
0.46666666666666645
40
0.48888888888888865
40
0.51111111111111085
40
0.5333333333333331
40
0.55555555555555536
40
0.57777777777777761
40
0.59999999999999987
40
0.62222222222222212
40
0.64444444444444438
40
0.66666666666666663
40
0.68888888888888888
40
0.71111111111111114
40
0.73333333333333339
40
0.75555555555555565
40
0.7777777777777779
40
0.80000000000000016
40
0.82222222222222241
40
0.84444444444444466
40
0.86666666666666692
40
0.88888888888888917
40
0.91111111111111143
40
0.93333333333333368
40
0.95555555555555594
40
0.97777777777777819
40
1
40
1
40
1
40
1
40
1
40
1
10
-27.035594880580902
20
-0.33695834875105857
30
0
10
-26.647875758249164
20
-0.9895894462340683
30
0
10
-25.842870869256885
20
-2.3208331489110021
30
0
10
-24.546664228900323
20
-4.3956420123317104
30
0
10
-22.640841980479642
20
-7.3180763875332557
30
0
10
-19.964686414276112
20
-11.225417257775854
30
0
10
-17.00209521623508
20
-15.368755574558744
30
0
10
-13.769235442245972
20
-19.710146693189262
30
0
10
-10.293703281657208
20
-24.186115434451082
30
0
10
-6.6187911215009221
20
-28.698724092502978
30
0
10
-2.8030595736478525
20
-33.115800005578187
30
0
10
1.091164405089597
20
-37.292795926941871
30
0
10
5.0071377749600039
20
-41.090413443200553
30
0
10
8.9037857843308572
20
-44.393741483365488
30
0
10
12.765806535096862
20
-47.131237677227197
30
0
10
16.613158256962329
20
-49.29295913887885
30
0
10
20.512760794869035
20
-50.951924221118261
30
0
10
24.553485156689241
20
-52.233100023118666
30
0
10
28.819918617786048
20
-53.280455880868345
30
0
10
33.364458793078001
20
-54.222267917461224
30
0
10
38.184836253241045
20
-55.14296395395769
30
0
10
43.187036828767503
20
-56.037553872511637
30
0
10
48.219594116023032
20
-56.84796997773681
30
0
10
53.117128319258327
20
-57.501760366765794
30
0
10
57.769205129787778
20
-57.996892336112865
30
0
10
62.115530718849087
20
-58.363076858798721
30
0
10
66.32201789790355
20
-58.922414001295394
30
0
10
70.460238198876311
20
-59.729283248196253
30
0
10
74.306578681075905
20
-60.289246444808704
30
0
10
77.60179935062537
20
-60.042167221976761
30
0
10
80.123656269312008
20
-58.528188528345382
30
0
10
81.872777717036826
20
-55.761245013745473
30
0
10
83.059516226177422
20
-52.189560963832726
30
0
10
83.977986424473016
20
-48.403396401199068
30
0
10
84.920804169635574
20
-44.938939826506292
30
0
10
86.056100876674932
20
-41.985927203561573
30
0
10
87.407516233071775
20
-39.370356401358116
30
0
10
88.918213541898439
20
-36.767554813863391
30
0
10
90.488899501457752
20
-33.839672043030397
30
0
10
92.032165373573704
20
-30.430579684056521
30
0
10
93.478947059097592
20
-26.551147946995421
30
0
10
94.774491636620752
20
-22.314097485878428
30
0
10
95.877750468298487
20
-17.88555435828075
30
0
10
96.759393406653174
20
-13.4304192055175
30
0
10
97.40048181442468
20
-9.0589918101122286
30
0
10
97.790168662841509
20
-4.8366356470821907
30
0
10
97.896846568637628
20
-1.6039411296844697
30
0
10
97.860948652647011
20
0.73421293369781937
30
0
10
97.785544307272687
20
2.2546253499248494
30
0
10
97.734974026680007
20
3.0052424669265703
30
0
0
LINE
5
106
100
AcDbEntity
8
0
100
AcDbLine
10
46.927704786084874
20
-56.729025382188929
30
0
11
77.065755153871748
21
-60.070762854429134
31
0
0
SPLINE
5
107
100
AcDbEntity
8
0
100
AcDbSpline
70
1064
71
5
72
56
73
50
74
0
42
0.000000001
43
0.0000000001
44
0.0000000001
40
0
40
0
40
0
40
0
40
0
40
0
40
0.022222222222222223
40
0.044444444444444446
40
0.066666666666666666
40
0.088888888888888892
40
0.11111111111111112
40
0.13333333333333333
40
0.15555555555555556
40
0.17777777777777778
40
0.20000000000000001
40
0.22222222222222224
40
0.24444444444444446
40
0.26666666666666666
40
0.28888888888888886
40
0.31111111111111106
40
0.33333333333333326
40
0.35555555555555546
40
0.37777777777777766
40
0.39999999999999986
40
0.42222222222222205
40
0.44444444444444425
40
0.46666666666666645
40
0.48888888888888865
40
0.51111111111111085
40
0.5333333333333331
40
0.55555555555555536
40
0.57777777777777761
40
0.59999999999999987
40
0.62222222222222212
40
0.64444444444444438
40
0.66666666666666663
40
0.68888888888888888
40
0.71111111111111114
40
0.73333333333333339
40
0.75555555555555565
40
0.7777777777777779
40
0.80000000000000016
40
0.82222222222222241
40
0.84444444444444466
40
0.86666666666666692
40
0.88888888888888917
40
0.91111111111111143
40
0.93333333333333368
40
0.95555555555555594
40
0.97777777777777819
40
1
40
1
40
1
40
1
40
1
40
1
10
-27.035594880580902
20
-0.33695834875105857
30
1.0197290402287987e-14
10
-26.653178550147764
20
0.29774463952455915
30
1.0145241403058661e-14
10
-25.860099324034181
20
1.5924659212047616
30
1.0038654082387303e-14
10
-24.585741173696526
20
3.6104930123211814
30
9.8713051415312768e-15
10
-22.716978702678009
20
6.453214808785928
30
9.6332252298155476e-15
10
-20.100109738414751
20
10.254810198070832
30
9.3107288561678951e-15
10
-17.208984584884277
20
14.287960087294705
30
8.9635065138984041e-15
10
-14.058086484030925
20
18.518204389813043
30
8.591993116536281e-15
10
-10.672302964195207
20
22.887624348110691
30
8.1969936320365841e-15
10
-7.0904642210982027
20
27.307330404012298
30
7.779805616082305e-15
10
-3.3662260477719275
20
31.655160433889105
30
7.3422987631350859e-15
10
0.44200417734421182
20
35.794984506052081
30
6.8868026387613859e-15
10
4.2796876399089285
20
39.593053543324139
30
6.4160300539317485e-15
10
8.1050022774459798
20
42.935014414407931
30
5.9329770052054046e-15
10
11.898402115697133
20
45.74381477509835
30
5.4408609917903826e-15
10
15.670121814509713
20
47.994751747371424
30
4.9429819940295742e-15
10
19.473293201578425
20
49.738577161296618
30
4.4427748764187065e-15
10
23.388704126133831
20
51.083888801041596
30
3.9429443146599593e-15
10
27.498933639304429
20
52.164023797181883
30
3.4443696053426386e-15
10
31.864476215473303
20
53.107447575608056
30
2.9448349488517258e-15
10
36.502245479854039
20
54.0103569605606
30
2.438365892006273e-15
10
41.355003519727859
20
54.899431685305174
30
1.9129788638317826e-15
10
46.292196588789992
20
55.729476513422199
30
1.3536919725329836e-15
10
51.161642228303741
20
56.436952199667765
30
7.5387859953082556e-16
10
55.829324041069526
20
56.981392484818151
30
1.2482468928908806e-16
10
60.223864517136207
20
57.389597989632293
30
-4.9420235437082485e-16
10
64.379017317246579
20
57.802996118422286
30
-1.0256059760676101e-15
10
68.48871526852264
20
58.5320449068806
30
-1.3394903783627475e-15
10
72.426190494521379
20
59.26508019661491
30
-1.4604347665355754e-15
10
75.962907267542263
20
59.492127667510417
30
-1.4741622762868659e-15
10
78.852524865923584
20
58.6896883258744
30
-1.4925347357186698e-15
10
80.969567792364771
20
56.603847685150662
30
-1.5950386533784018e-15
10
82.418457264573362
20
53.4773036347366
30
-1.78285578535531e-15
10
83.440337157180039
20
49.824614223249846
30
-2.0118785056294386e-15
10
84.321555037802739
20
46.211764487517975
30
-2.2253768079822268e-15
10
85.305043913079317
20
43.043771726704378
30
-2.3852124459765939e-15
10
86.492444388540406
20
40.325346526513606
30
-2.5073980193435321e-15
10
87.87716578555299
20
37.800022080472658
30
-2.6375748563712488e-15
10
89.388464057626749
20
35.120046650085783
30
-2.8217163058579161e-15
10
90.932224950119078
20
32.009802919787454
30
-3.0775392513459561e-15
10
92.430451249831421
20
28.418105583086835
30
-3.3684001452624604e-15
10
93.818486180841504
20
24.445795223120133
30
-3.622777456541923e-15
10
95.045157150634026
20
20.287324082158833
30
-3.7510410746258063e-15
10
96.071789366012453
20
16.169222902361181
30
-3.6626113681387895e-15
10
96.871880333599563
20
12.285762623100826
30
-3.28426907751259e-15
10
97.430151963378762
20
8.748692837534465
30
-2.5740301113273284e-15
10
97.677553182962797
20
6.2411949100454542
30
-1.7237637069298251e-15
10
97.750153908950864
20
4.5497045323300798
30
-9.2462124164574528e-16
10
97.748394024608331
20
3.5060612988919395
30
-3.2015718314297688e-16
10
97.734974026680007
20
3.0052424669265703
30
0
0
LINE
5
108
100
AcDbEntity
8
0
100
AcDbLine
10
46.927704786084838
20
55.913186456456472
30
1.1393985831721144e-15
11
77.065755153871748
21
59.254923928696684
31
-2.5514481083730805e-15
0
SPLINE
5
109
100
AcDbEntity
8
0
100
AcDbSpline
70
1064
71
5
72
56
73
50
74
0
42
0.000000001
43
0.0000000001
44
0.0000000001
40
0
40
0
40
0
40
0
40
0
40
0
40
0.022222222222222223
40
0.044444444444444446
40
0.066666666666666666
40
0.088888888888888892
40
0.11111111111111112
40
0.13333333333333333
40
0.15555555555555556
40
0.17777777777777778
40
0.20000000000000001
40
0.22222222222222224
40
0.24444444444444446
40
0.26666666666666666
40
0.28888888888888886
40
0.31111111111111106
40
0.33333333333333326
40
0.35555555555555546
40
0.37777777777777766
40
0.39999999999999986
40
0.42222222222222205
40
0.44444444444444425
40
0.46666666666666645
40
0.48888888888888865
40
0.51111111111111085
40
0.5333333333333331
40
0.55555555555555536
40
0.57777777777777761
40
0.59999999999999987
40
0.62222222222222212
40
0.64444444444444438
40
0.66666666666666663
40
0.68888888888888888
40
0.71111111111111114
40
0.73333333333333339
40
0.75555555555555565
40
0.7777777777777779
40
0.80000000000000016
40
0.82222222222222241
40
0.84444444444444466
40
0.86666666666666692
40
0.88888888888888917
40
0.91111111111111143
40
0.93333333333333368
40
0.95555555555555594
40
0.97777777777777819
40
1
40
1
40
1
40
1
40
1
40
1
10
-47.035594880580902
20
-0.33695834875105468
30
1.0197290402287987e-14
10
-47.418011211038198
20
-0.97166133702643465
30
1.0145241403058661e-14
10
-48.211090437194486
20
-2.2663826187062064
30
1.0038654082387303e-14
10
-49.485448587578887
20
-4.2844097098221132
30
9.8713051415312768e-15
10
-51.354211058625935
20
-7.1271315062864424
30
9.6332252298155476e-15
10
-53.97108002287959
20
-10.92872689557127
30
9.3107288561678951e-15
10
-56.862205176369841
20
-14.961876784795503
30
8.9635065138984041e-15
10
-60.013103277169563
20
-19.192121087314561
30
8.591993116536281e-15
10
-63.39888679695396
20
-23.561541045612977
30
8.1969936320365841e-15
10
-66.980725540013907
20
-27.981247101515237
30
7.779805616082305e-15
10
-70.70496371332267
20
-32.329077131392516
30
7.3422987631350859e-15
10
-74.51319393844048
20
-36.468901203555632
30
6.8868026387613859e-15
10
-78.350877401021307
20
-40.266970240827469
30
6.4160300539317485e-15
10
-82.176192038581561
20
-43.608931111910756
30
5.9329770052054046e-15
10
-85.969591876855333
20
-46.417731472600565
30
5.4408609917903826e-15
10
-89.741311575683667
20
-48.668668444873191
30
4.9429819940295742e-15
10
-93.544482962758735
20
-50.412493858798058
30
4.4427748764187065e-15
10
-97.459893887312617
20
-51.757805498542986
30
3.9429443146599593e-15
10
-101.57012340047683
20
-52.837940494683423
30
3.4443696053426386e-15
10
-105.93566597663816
20
-53.781364273109943
30
2.9448349488517258e-15
10
-110.5734352410133
20
-54.684273658062878
30
2.438365892006273e-15
10
-115.42619328088458
20
-55.57334838280773
30
1.9129788638317826e-15
10
-120.36338634994722
20
-56.403393210924804
30
1.3536919725329836e-15
10
-125.23283198946297
20
-57.110868897170199
30
7.5387859953082556e-16
10
-129.90051380223071
20
-57.655309182320352
30
1.2482468928908806e-16
10
-134.29505427829832
20
-58.063514687134358
30
-4.9420235437082485e-16
10
-138.4502070784082
20
-58.4769128159244
30
-1.0256059760676101e-15
10
-142.55990502968453
20
-59.205961604382736
30
-1.3394903783627475e-15
10
-146.49738025568411
20
-59.938996894117047
30
-1.4604347665355754e-15
10
-150.03409702870522
20
-60.166044365012532
30
-1.4741622762868659e-15
10
-152.92371462708564
20
-59.3636050233765
30
-1.4925347357186698e-15
10
-155.04075755352463
20
-57.277764382652805
30
-1.5950386533784018e-15
10
-156.4896470257311
20
-54.151220332238701
30
-1.78285578535531e-15
10
-157.51152691833752
20
-50.498530920751925
30
-2.0118785056294386e-15
10
-158.39274479896343
20
-46.885681185020054
30
-2.2253768079822268e-15
10
-159.37623367424629
20
-43.717688424206514
30
-2.3852124459765939e-15
10
-160.56363414971275
20
-40.999263224015799
30
-2.5073980193435321e-15
10
-161.948355546725
20
-38.473938777974823
30
-2.6375748563712488e-15
10
-163.4596538187896
20
-35.793963347587905
30
-2.8217163058579161e-15
10
-165.00341471126467
20
-32.683719617289405
30
-3.0775392513459561e-15
10
-166.50164101095996
20
-29.092022280588626
30
-3.3684001452624604e-15
10
-167.88967594196325
20
-25.119711920621874
30
-3.622777456541923e-15
10
-169.11634691176741
20
-20.96124077966067
30
-3.7510410746258063e-15
10
-170.14297912717777
20
-16.843139599863328
30
-3.6626113681387895e-15
10
-170.94307009480792
20
-12.959679320603321
30
-3.28426907751259e-15
10
-171.50134172461986
20
-9.4226095350372159
30
-2.5740301113273284e-15
10
-171.7487429442013
20
-6.915111607548182
30
-1.7237637069298251e-15
10
-171.82134367016175
20
-5.2236212298325793
30
-9.2462124164574528e-16
10
-171.81958378578852
20
-4.1799779963941894
30
-3.2015718314297688e-16
10
-171.80616378784183
20
-3.6791591644286696
30
0
0
LINE
5
110
100
AcDbEntity
8
0
100
AcDbLine
10
-120.99889454724664
20
-56.587103153958587
30
1.1393985831721144e-15
11
-151.13694491503355
21
-59.928840626198784
31
-2.5514481083730805e-15
0
SPLINE
5
111
100
AcDbEntity
8
0
100
AcDbSpline
70
1064
71
5
72
56
73
50
74
0
42
0.000000001
43
0.0000000001
44
0.0000000001
40
0
40
0
40
0
40
0
40
0
40
0
40
0.022222222222222223
40
0.044444444444444446
40
0.066666666666666666
40
0.088888888888888892
40
0.11111111111111112
40
0.13333333333333333
40
0.15555555555555556
40
0.17777777777777778
40
0.20000000000000001
40
0.22222222222222224
40
0.24444444444444446
40
0.26666666666666666
40
0.28888888888888886
40
0.31111111111111106
40
0.33333333333333326
40
0.35555555555555546
40
0.37777777777777766
40
0.39999999999999986
40
0.42222222222222205
40
0.44444444444444425
40
0.46666666666666645
40
0.48888888888888865
40
0.51111111111111085
40
0.5333333333333331
40
0.55555555555555536
40
0.57777777777777761
40
0.59999999999999987
40
0.62222222222222212
40
0.64444444444444438
40
0.66666666666666663
40
0.68888888888888888
40
0.71111111111111114
40
0.73333333333333339
40
0.75555555555555565
40
0.7777777777777779
40
0.80000000000000016
40
0.82222222222222241
40
0.84444444444444466
40
0.86666666666666692
40
0.88888888888888917
40
0.91111111111111143
40
0.93333333333333368
40
0.95555555555555594
40
0.97777777777777819
40
1
40
1
40
1
40
1
40
1
40
1
10
-47.035594880580902
20
-0.33695834875105468
30
0
10
-47.423314002998886
20
0.31567274873174295
30
0
10
-48.228318892142553
20
1.6469164514083205
30
0
10
-49.52452553266194
20
3.7217253148287073
30
0
10
-51.430347781176351
20
6.6441596900302251
30
0
10
-54.106503347334694
20
10.551500560273251
30
0
10
-57.069094545226655
20
14.694838877056709
30
0
10
-60.301954319027338
20
19.036229995687535
30
0
10
-63.7774864794455
20
23.512198736948946
30
0
10
-67.452398639487143
20
28.024807394999769
30
0
10
-71.268130187293664
20
32.44188330807377
30
0
10
-75.162354166046327
20
36.618879229436921
30
0
10
-79.078327535975731
20
40.416496745695945
30
0
10
-82.974975545424115
20
43.719824785862031
30
0
10
-86.836996296261177
20
46.45732097972509
30
0
10
-90.684348018172315
20
48.619042441377751
30
0
10
-94.58395055609428
20
50.278007523617624
30
0
10
-98.624674917904542
20
51.559183325617838
30
0
10
-102.89110837897701
20
52.606539183366962
30
0
10
-107.43564855424312
20
53.548351219959173
30
0
10
-112.25602601438902
20
54.469047256455255
30
0
10
-117.25822658991049
20
55.363637175009032
30
0
10
-122.29078387717033
20
56.17405328023429
30
0
10
-127.18831808041375
20
56.82784366926348
30
0
10
-131.8403948909494
20
57.322975638610778
30
0
10
-136.18672048001142
20
57.689160161296584
30
0
10
-140.39320765906442
20
58.248497303793279
30
0
10
-144.53142796003806
20
59.055366550694053
30
0
10
-148.37776844223927
20
59.615329747306475
30
0
10
-151.67298911178881
20
59.368250524474561
30
0
10
-154.19484603047235
20
57.854271830843416
30
0
10
-155.94396747819215
20
55.087328316243628
30
0
10
-157.13070598733037
20
51.515644266330924
30
0
10
-158.04917618562956
20
47.729479703697059
30
0
10
-158.99199393080224
20
44.265023129004078
30
0
10
-160.12729063785346
20
41.31201050605911
30
0
10
-161.4787059942542
20
38.69643970385566
30
0
10
-162.98940330306914
20
36.093638116361198
30
0
10
-164.56008926260006
20
33.165755345528581
30
0
10
-166.10335513468209
20
29.756662986554922
30
0
10
-167.5501368201858
20
25.877231249493867
30
0
10
-168.84568139772011
20
21.640180788376693
30
0
10
-169.94894022944982
20
17.211637660778678
30
0
10
-170.83058316789075
20
12.756502508015025
30
0
10
-171.47167157575265
20
8.3850751126094476
30
0
10
-171.86135842422044
20
4.1627189495793004
30
0
10
-171.96803632999007
20
0.93002443218172792
30
0
10
-171.93213841392622
20
-1.4081296312002993
30
0
10
-171.85673406847781
20
-2.9285420474270873
30
0
10
-171.80616378784183
20
-3.6791591644286696
30
0
0
LINE
5
112
100
AcDbEntity
8
0
100
AcDbLine
10
-120.99889454724668
20
56.055108684686815
30
0
11
-151.13694491503355
21
59.396846156927026
31
0
0
CIRCLE
5
113
100
AcDbEntity
8
0
100
AcDbCircle
10
-273.26528092860246
20
40.677416637676053
30
0
40
14.500000000000011
0
CIRCLE
5
114
100
AcDbEntity
8
0
100
AcDbCircle
10
-273.26528092860246
20
-40.822583362323954
30
0
40
14.500000000000011
0
CIRCLE
5
115
100
AcDbEntity
8
0
100
AcDbCircle
10
175.60951881191636
20
98.664979021283642
30
0
40
17.526000000000007
0
CIRCLE
5
116
100
AcDbEntity
8
0
100
AcDbCircle
10
175.60951881191636
20
98.664979021283656
30
0
40
17.526
0
CIRCLE
5
117
100
AcDbEntity
8
0
100
AcDbCircle
10
175.60951881191636
20
98.664979021283614
30
0
40
17.526
0
CIRCLE
5
118
100
AcDbEntity
8
0
100
AcDbCircle
10
175.60951881191636
20
-96.915020978716313
30
0
40
17.525999999999993
0
CIRCLE
5
119
100
AcDbEntity
8
0
100
AcDbCircle
10
175.60951881191636
20
-96.915020978716313
30
0
40
17.526
0
CIRCLE
5
120
100
AcDbEntity
8
0
100
AcDbCircle
10
175.60951881191636
20
-96.915020978716313
30
0
40
17.526
0
CIRCLE
5
121
100
AcDbEntity
8
0
100
AcDbCircle
10
175.60951881191636
20
0.87497902128370164
30
0
40
16
0
ENDSEC
0
SECTION
2
OBJECTS
0
DICTIONARY
5
C
100
AcDbDictionary
3
ACAD_GROUP
350
D
3
ACAD_MLINESTYLE
350
17
0
DICTIONARY
5
D
100
AcDbDictionary
0
DICTIONARY
5
1A
330
C
100
AcDbDictionary
0
DICTIONARY
5
17
100
AcDbDictionary
0
ENDSEC
0
EOF
