0
SECTION
2
HEADER
9
$INSUNITS
70
4
9
$ACADVER
1
AC1014
9
$HANDSEED
5
FFFF
0
ENDSEC
0
SECTION
2
TABLES
0
TABLE
2
VPORT
5
8
100
AcDbSymbolTable
0
ENDTAB
0
TABLE
2
LTYPE
5
5
100
AcDbSymbolTable
0
LTYPE
5
14
100
AcDbSymbolTableRecord
100
AcDbLinetypeTableRecord
2
BYBLOCK
70
0
0
LTYPE
5
15
100
AcDbSymbolTableRecord
100
AcDbLinetypeTableRecord
2
BYLAYER
70
0
0
ENDTAB
0
TABLE
2
LAYER
5
2
100
AcDbSymbolTable
70
2
0
LAYER
5
50
100
AcDbSymbolTableRecord
100
AcDbLayerTableRecord
2
0
70
0
6
CONTINUOUS
0
ENDTAB
0
TABLE
2
STYLE
5
3
100
AcDbSymbolTable
70
1
0
STYLE
5
11
100
AcDbSymbolTableRecord
100
AcDbTextStyleTableRecord
2
STANDARD
70
0
0
ENDTAB
0
TABLE
2
VIEW
5
6
100
AcDbSymbolTable
70
0
0
ENDTAB
0
TABLE
2
UCS
5
7
100
AcDbSymbolTable
70
0
0
ENDTAB
0
TABLE
2
APPID
5
9
100
AcDbSymbolTable
70
2
0
APPID
5
12
100
AcDbSymbolTableRecord
100
AcDbRegAppTableRecord
2
ACAD
70
0
0
ENDTAB
0
TABLE
2
DIMSTYLE
5
A
100
AcDbSymbolTable
70
1
0
ENDTAB
0
TABLE
2
BLOCK_RECORD
5
1
100
AcDbSymbolTable
70
1
0
BLOCK_RECORD
5
1F
100
AcDbSymbolTableRecord
100
AcDbBlockTableRecord
2
*MODEL_SPACE
0
BLOCK_RECORD
5
1B
100
AcDbSymbolTableRecord
100
AcDbBlockTableRecord
2
*PAPER_SPACE
0
ENDTAB
0
ENDSEC
0
SECTION
2
BLOCKS
0
BLOCK
5
20
100
AcDbEntity
100
AcDbBlockBegin
2
*MODEL_SPACE
0
ENDBLK
5
21
100
AcDbEntity
100
AcDbBlockEnd
0
BLOCK
5
1C
100
AcDbEntity
100
AcDbBlockBegin
2
*PAPER_SPACE
0
ENDBLK
5
1D
100
AcDbEntity
100
AcDbBlockEnd
0
ENDSEC
0
SECTION
2
ENTITIES
0
SPLINE
5
100
100
AcDbEntity
8
0
100
AcDbSpline
70
1064
71
5
72
31
73
25
74
0
42
0.000000001
43
0.0000000001
44
0.0000000001
40
0
40
0
40
0
40
0
40
0
40
0
40
0.050000000000000003
40
0.10000000000000001
40
0.15000000000000002
40
0.20000000000000001
40
0.25
40
0.29999999999999999
40
0.34999999999999998
40
0.39999999999999997
40
0.44999999999999996
40
0.49999999999999994
40
0.54999999999999993
40
0.59999999999999998
40
0.65000000000000002
40
0.70000000000000007
40
0.75000000000000011
40
0.80000000000000016
40
0.8500000000000002
40
0.90000000000000024
40
0.95000000000000029
40
1
40
1
40
1
40
1
40
1
40
1
10
110.17112255096436
20
430.57041168212891
30
0
10
103.53132828411265
20
425.9980824611182
30
0
10
90.247966009403925
20
416.64628087823706
30
0
10
70.311598237758176
20
401.99714478845772
30
0
10
43.707060081794225
20
381.21706144937269
30
0
10
10.426401958050961
20
353.14763721828598
30
0
10
-22.839001553700275
20
322.99371962042324
30
0
10
-56.008336019173576
20
290.81502952764868
30
0
10
-88.943172371578015
20
256.75483562895903
30
0
10
-121.43961176901834
20
221.05913916689514
30
0
10
-153.25832778683781
20
184.03179138842427
30
0
10
-184.14841682553245
20
146.00199860505484
30
0
10
-213.87458160178875
20
107.28851714072627
30
0
10
-242.24269230808105
20
68.167847403968011
30
0
10
-269.13126840616945
20
28.837400643397547
30
0
10
-294.47843286737481
20
-10.57294374227471
30
0
10
-318.26548760326216
20
-49.984568048622563
30
0
10
-340.50403727312528
20
-89.356042812698803
30
0
10
-361.22403535405732
20
-128.66940457617136
30
0
10
-380.46328286573925
20
-167.91526675599331
30
0
10
-398.2599004041486
20
-207.088460967613
30
0
10
-411.36928540048353
20
-238.36754302480432
30
0
10
-420.57700012752548
20
-261.79340446898993
30
0
10
-426.4391297201829
20
-277.3958424787287
30
0
10
-429.30110762344748
20
-285.19336055252671
30
0
0
LINE
5
101
100
AcDbEntity
8
0
100
AcDbLine
10
-246.68642997741699
20
62.374904155731201
30
0
11
-186.84807777404785
21
143.3107328414917
31
0
0
SPLINE
5
102
100
AcDbEntity
8
0
100
AcDbSpline
70
1064
71
5
72
31
73
25
74
0
42
0.000000001
43
0.0000000001
44
0.0000000001
40
0
40
0
40
0
40
0
40
0
40
0
40
0.050000000000000003
40
0.10000000000000001
40
0.15000000000000002
40
0.20000000000000001
40
0.25
40
0.29999999999999999
40
0.34999999999999998
40
0.39999999999999997
40
0.44999999999999996
40
0.49999999999999994
40
0.54999999999999993
40
0.59999999999999998
40
0.65000000000000002
40
0.70000000000000007
40
0.75000000000000011
40
0.80000000000000016
40
0.8500000000000002
40
0.90000000000000024
40
0.95000000000000029
40
1
40
1
40
1
40
1
40
1
40
1
10
110.17112255096436
20
430.57041168212891
30
0
10
111.82920048158405
20
429.41025935156779
30
0
10
115.19942879026723
20
427.15187628844717
30
0
10
120.41698618904431
20
423.9500657823794
30
0
10
127.69950429700728
20
420.05403529420477
30
0
10
137.34242534734045
20
415.81460856471847
30
0
10
147.50214444513705
20
412.21682656245957
30
0
10
158.12100611018383
20
409.27037815595298
30
0
10
169.09313579692085
20
406.9799327112047
30
0
10
180.24481575841264
20
405.3400473460178
30
0
10
191.3290959391087
20
404.33195196774017
30
0
10
202.07500056893306
20
403.92852893294526
30
0
10
212.22619262963875
20
404.09726516302214
30
0
10
221.5869499201761
20
404.80324382972208
30
0
10
230.05991439203498
20
406.01137781031798
30
0
10
237.70592403094105
20
407.68843049884816
30
0
10
244.72582965855815
20
409.80418124910682
30
0
10
251.38292229337515
20
412.33192680378886
30
0
10
257.94922375923181
20
415.24882315808827
30
0
10
264.63231332264388
20
418.53578818986421
30
0
10
271.54695108341275
20
422.17758688167862
30
0
10
277.3086634803384
20
425.36617173147363
30
0
10
281.76621433331127
20
427.90947381066871
30
0
10
284.79826968863688
20
429.67222897730346
30
0
10
286.32938385009766
20
430.57041168212891
30
0
0
LINE
5
103
100
AcDbEntity
8
0
100
AcDbLine
10
286.32938385009766
20
430.57041168212891
30
0
11
370.02875641108005
21
284.63289690675794
31
0
0
LINE
5
104
100
AcDbEntity
8
0
100
AcDbLine
10
370.02875641108005
20
284.63289690675794
30
0
11
295.51352065195965
21
115.54063114567668
31
0
0
SPLINE
5
105
100
AcDbEntity
8
0
100
AcDbSpline
70
1064
71
5
72
46
73
40
74
0
42
0.000000001
43
0.0000000001
44
0.0000000001
40
0
40
0
40
0
40
0
40
0
40
0
40
0.028571428571428571
40
0.057142857142857141
40
0.085714285714285715
40
0.11428571428571428
40
0.14285714285714285
40
0.17142857142857143
40
0.20000000000000001
40
0.22857142857142859
40
0.25714285714285717
40
0.28571428571428575
40
0.31428571428571433
40
0.34285714285714292
40
0.3714285714285715
40
0.40000000000000008
40
0.42857142857142866
40
0.45714285714285724
40
0.48571428571428582
40
0.51428571428571435
40
0.54285714285714293
40
0.57142857142857151
40
0.60000000000000009
40
0.62857142857142867
40
0.65714285714285725
40
0.68571428571428583
40
0.71428571428571441
40
0.74285714285714299
40
0.77142857142857157
40
0.80000000000000016
40
0.82857142857142874
40
0.85714285714285732
40
0.8857142857142859
40
0.91428571428571448
40
0.94285714285714306
40
0.97142857142857164
40
1
40
1
40
1
40
1
40
1
40
1
10
-331.97063624945361
20
-326.61230333223557
30
0
10
-329.33589964112747
20
-325.23088394498279
30
0
10
-323.94536102281234
20
-322.27086700363139
30
0
10
-315.49635776150046
20
-317.23931989786007
30
0
10
-303.51258609106009
20
-309.38999400777288
30
0
10
-287.38868681367887
20
-297.93100438639209
30
0
10
-270.20072264269066
20
-285.1589807878924
30
0
10
-252.04982949719556
20
-271.42798991055668
30
0
10
-233.05173409923415
20
-257.038035788184
30
0
10
-213.33339791918687
20
-242.21612630160976
30
0
10
-193.03171752964144
20
-227.13295728377201
30
0
10
-172.29169349649001
20
-211.9086898383286
30
0
10
-151.26505064656976
20
-196.62295524433628
30
0
10
-130.10850573177333
20
-181.32286865635865
30
0
10
-108.98293868814478
20
-166.03158473008367
30
0
10
-88.04512366848266
20
-150.75784086109431
30
0
10
-67.438254860008811
20
-135.50586450599386
30
0
10
-47.282870379516801
20
-120.28501602339533
30
0
10
-27.667345618208849
20
-105.11974421270851
30
0
10
-8.638628901242237
20
-90.059025873213585
30
0
10
9.8081537007983499
20
-75.187345032046991
30
0
10
27.720951917475976
20
-60.607194552247741
30
0
10
45.181131752773666
20
-46.42071375525407
30
0
10
62.294602800668606
20
-32.710473719623366
30
0
10
79.182373926066774
20
-19.523139543713121
30
0
10
95.972625618477451
20
-6.8450390591325059
30
0
10
112.78690110716323
20
5.387031446447665
30
0
10
129.72347506812258
20
17.255645286646399
30
0
10
146.84064158288078
20
28.837829620075482
30
0
10
164.14171295796774
20
40.180019786739209
30
0
10
181.55408131966863
20
51.267813825832604
30
0
10
198.94951189547766
20
62.038813665208103
30
0
10
216.17418910735623
20
72.405851021381096
30
0
10
233.07462053680547
20
82.276063310266181
30
0
10
249.5266736571723
20
91.572714211299356
30
0
10
265.45930151752532
20
100.25298697904041
30
0
10
277.76253288585514
20
106.68833556633211
30
0
10
286.73647807184813
20
111.22648163787856
30
0
10
292.60659213429437
20
114.12391411476091
30
0
10
295.51352065195965
20
115.54063114567668
30
0
0
LINE
5
106
100
AcDbEntity
8
0
100
AcDbLine
10
-177.71174430847168
20
-217.9340124130249
30
0
11
-118.67068767547607
21
-170.89343070983887
31
0
0
LINE
5
107
100
AcDbEntity
8
0
100
AcDbLine
10
-57.940107583999634
20
-125.84952831268311
30
0
11
4.4519253075122833
21
-82.769167423248291
31
0
0
SPLINE
5
108
100
AcDbEntity
8
0
100
AcDbSpline
70
1064
71
5
72
31
73
25
74
0
42
0.000000001
43
0.0000000001
44
0.0000000001
40
0
40
0
40
0
40
0
40
0
40
0
40
0.050000000000000003
40
0.10000000000000001
40
0.15000000000000002
40
0.20000000000000001
40
0.25
40
0.29999999999999999
40
0.34999999999999998
40
0.39999999999999997
40
0.44999999999999996
40
0.49999999999999994
40
0.54999999999999993
40
0.59999999999999998
40
0.65000000000000002
40
0.70000000000000007
40
0.75000000000000011
40
0.80000000000000016
40
0.8500000000000002
40
0.90000000000000024
40
0.95000000000000029
40
1
40
1
40
1
40
1
40
1
40
1
10
120.4505092627992
20
139.45562299593104
30
0
10
119.93275950971844
20
138.67635585369942
30
0
10
118.73940297501821
20
137.06174047739944
30
0
10
116.47575919048604
20
134.47156330385863
30
0
10
112.50681215889152
20
130.68020617018774
30
0
10
105.9838571157505
20
125.38178962187315
30
0
10
98.014408251199143
20
119.55157008644299
30
0
10
88.846604638182811
20
113.2515169112331
30
0
10
78.795556761393854
20
106.55865936762899
30
0
10
68.190739584747718
20
99.549370825501654
30
0
10
57.324223090870092
20
92.284131009832521
30
0
10
46.388243810269458
20
84.788840769801865
30
0
10
35.454915625906345
20
77.04983773502606
30
0
10
24.5159632538818
20
69.028408589562972
30
0
10
13.506010379589595
20
60.670149963233115
30
0
10
2.332081868515866
20
51.916725060878655
30
0
10
-9.101588711795598
20
42.716074875806441
30
0
10
-20.862938852553011
20
33.035726901487919
30
0
10
-32.993281783186561
20
22.860212026220363
30
0
10
-45.515214233120957
20
12.18529419095886
30
0
10
-58.437537044508012
20
1.0140059971122692
30
0
10
-69.096099776713174
20
-8.3150993125629782
30
0
10
-77.26897928537096
20
-15.529699952600547
30
0
10
-82.796779631438397
20
-20.435827649117428
30
0
10
-85.580483271835476
20
-22.91298999045512
30
0
0
LINE
5
109
100
AcDbEntity
8
0
100
AcDbLine
10
120.4505092627992
20
139.45562299593104
30
0
11
124.65072937083137
21
266.40277799471016
31
0
0
SPLINE
5
110
100
AcDbEntity
8
0
100
AcDbSpline
70
1064
71
5
72
31
73
25
74
0
42
0.000000001
43
0.0000000001
44
0.0000000001
40
0
40
0
40
0
40
0
40
0
40
0
40
0.050000000000000003
40
0.10000000000000001
40
0.15000000000000002
40
0.20000000000000001
40
0.25
40
0.29999999999999999
40
0.34999999999999998
40
0.39999999999999997
40
0.44999999999999996
40
0.49999999999999994
40
0.54999999999999993
40
0.59999999999999998
40
0.65000000000000002
40
0.70000000000000007
40
0.75000000000000011
40
0.80000000000000016
40
0.8500000000000002
40
0.90000000000000024
40
0.95000000000000029
40
1
40
1
40
1
40
1
40
1
40
1
10
-81.782672929049326
20
110.2976268182577
30
0
10
-80.645201177937707
20
111.62177084836213
30
0
10
-78.307406072163829
20
114.32064713854372
30
0
10
-74.612158880878866
20
118.52072650823993
30
0
10
-69.306512437533215
20
124.425598832283
30
0
10
-62.03562166437959
20
132.31434135143334
30
0
10
-54.118520270419417
20
140.69693217022973
30
0
10
-45.552936424069031
20
149.53561678695198
30
0
10
-36.347114837881115
20
158.75693333484318
30
0
10
-26.521093344526641
20
168.26034952328783
30
0
10
-16.108287537616548
20
177.92687112927337
30
0
10
-5.1581998006187613
20
187.62712854541581
30
0
10
6.2612279233927435
20
197.22892214632861
30
0
10
18.058136485813311
20
206.60564530521012
30
0
10
30.122694632338842
20
215.64008006573346
30
0
10
42.338069964895539
20
224.22630330673857
30
0
10
54.589305169736591
20
232.27266047851151
30
0
10
66.772935013831528
20
239.70505431831288
30
0
10
78.80615127319102
20
246.47079783284323
30
0
10
90.637069655909841
20
252.54367162153704
30
0
10
102.23764335930957
20
257.91595303176803
30
0
10
111.32458024189407
20
261.65569334178207
30
0
10
118.03012605010107
20
264.14963521601635
30
0
10
122.45195134775109
20
265.67466366747237
30
0
10
124.65072937083137
20
266.40277799471016
30
0
0
SPLINE
5
111
100
AcDbEntity
8
0
100
AcDbSpline
70
1064
71
5
72
41
73
35
74
0
42
0.000000001
43
0.0000000001
44
0.0000000001
40
0
40
0
40
0
40
0
40
0
40
0
40
0.033333333333333333
40
0.066666666666666666
40
0.10000000000000001
40
0.13333333333333333
40
0.16666666666666666
40
0.19999999999999998
40
0.23333333333333331
40
0.26666666666666666
40
0.29999999999999999
40
0.33333333333333331
40
0.36666666666666664
40
0.39999999999999997
40
0.43333333333333329
40
0.46666666666666662
40
0.49999999999999994
40
0.53333333333333333
40
0.56666666666666665
40
0.59999999999999998
40
0.6333333333333333
40
0.66666666666666663
40
0.69999999999999996
40
0.73333333333333328
40
0.76666666666666661
40
0.79999999999999993
40
0.83333333333333326
40
0.86666666666666659
40
0.89999999999999991
40
0.93333333333333324
40
0.96666666666666656
40
1
40
1
40
1
40
1
40
1
40
1
10
-225.52015813855405
20
-135.63312587994227
30
0
10
-226.57479660452498
20
-135.44136653200974
30
0
10
-228.55830862565028
20
-134.89093115144084
30
0
10
-231.15630875828757
20
-133.5644898350341
30
0
10
-233.86417377313074
20
-130.7928429748477
30
0
10
-235.97246585870971
20
-125.67591693428382
30
0
10
-236.76452447880115
20
-118.98989400712526
30
0
10
-236.18435036858943
20
-110.89717861179678
30
0
10
-234.1944121248211
20
-101.6142602729571
30
0
10
-230.80540297142198
20
-91.39647162687487
30
0
10
-226.10654655637819
20
-80.519495577725664
30
0
10
-220.30197195528598
20
-69.262442343481013
30
0
10
-213.67698312326752
20
-57.893373178459115
30
0
10
-206.55585460754037
20
-46.655390152330739
30
0
10
-199.26353700882953
20
-35.752568307498812
30
0
10
-192.08519637662673
20
-25.335262173990412
30
0
10
-185.22824545873067
20
-15.48619669036114
30
0
10
-178.77868798521408
20
-6.2033476969536849
30
0
10
-172.67119074316182
20
2.6097301542267299
30
0
10
-166.74636176683879
20
11.104658090013444
30
0
10
-160.79646890260037
20
19.455722406173241
30
0
10
-154.61702505017254
20
27.823653823997894
30
0
10
-148.05140139374348
20
36.324267789510159
30
0
10
-141.04944955943625
20
44.986765423091981
30
0
10
-133.68122970671976
20
53.745433671361653
30
0
10
-126.09350393192375
20
62.474068830524494
30
0
10
-118.48182608624113
20
71.00872025354559
30
0
10
-111.05563241652359
20
79.175792674833758
30
0
10
-104.00921173584055
20
86.815536971719666
30
0
10
-97.483476622966009
20
93.813089396482468
30
0
10
-91.556659849620218
20
100.10570706486362
30
0
10
-87.324239835249074
20
104.55260472776015
30
0
10
-84.440601423817469
20
107.55450341704332
30
0
10
-82.647153630622228
20
109.40789702464953
30
0
10
-81.782672929049397
20
110.29762681825784
30
0
0
SPLINE
5
112
100
AcDbEntity
8
0
100
AcDbSpline
70
1064
71
5
72
16
73
10
74
0
42
0.000000001
43
0.0000000001
44
0.0000000001
40
0
40
0
40
0
40
0
40
0
40
0
40
0.20000000000000001
40
0.40000000000000002
40
0.60000000000000009
40
0.80000000000000004
40
1
40
1
40
1
40
1
40
1
40
1
10
-225.52015813855405
20
-135.63312587994227
30
0
10
-219.92257114387033
20
-131.12432044433876
30
0
10
-208.72739715450737
20
-122.10670957313818
30
0
10
-191.93463617047729
20
-108.58029326635743
30
0
10
-169.54428819179475
20
-90.545071524018709
30
0
10
-141.55635321846691
20
-68.001044346136936
30
0
10
-119.16600523981344
20
-49.965822603853709
30
0
10
-102.37324425582446
20
-36.439406297150818
30
0
10
-91.17807026649848
20
-27.421795426019671
30
0
10
-85.580483271835476
20
-22.91298999045512
30
0
0
CIRCLE
5
113
100
AcDbEntity
8
0
100
AcDbCircle
10
255.6219447879887
20
324.69679406150942
30
0
40
14.500000000000036
0
CIRCLE
5
114
100
AcDbEntity
8
0
100
AcDbCircle
10
303.52644284982534
20
258.76190901995119
30
0
40
14.499999999999996
0
SPLINE
5
115
100
AcDbEntity
8
0
100
AcDbSpline
70
1064
71
5
72
36
73
30
74
0
42
0.000000001
43
0.0000000001
44
0.0000000001
40
0
40
0
40
0
40
0
40
0
40
0
40
0.040000000000000001
40
0.080000000000000002
40
0.12
40
0.16
40
0.20000000000000001
40
0.24000000000000002
40
0.28000000000000003
40
0.32000000000000001
40
0.35999999999999999
40
0.39999999999999997
40
0.43999999999999995
40
0.47999999999999993
40
0.51999999999999991
40
0.55999999999999994
40
0.59999999999999998
40
0.64000000000000001
40
0.68000000000000005
40
0.72000000000000008
40
0.76000000000000012
40
0.80000000000000016
40
0.84000000000000019
40
0.88000000000000023
40
0.92000000000000026
40
0.9600000000000003
40
1
40
1
40
1
40
1
40
1
40
1
10
-331.97063624945361
20
-326.61230333223557
30
0
10
-332.81249449503446
20
-326.90451225484549
30
0
10
-334.51903757315426
20
-327.4988669206117
30
0
10
-337.14733187811049
20
-328.42020605065125
30
0
10
-340.78904161300812
20
-329.70845717333623
30
0
10
-345.57101006847091
20
-331.40827173362652
30
0
10
-350.58207115726162
20
-333.16595817215477
30
0
10
-355.81790010983525
20
-334.9158420054394
30
0
10
-361.26862637857846
20
-336.54878119762782
30
0
10
-366.91671174416996
20
-337.89395620870152
30
0
10
-372.73486776291628
20
-338.73582576469772
30
0
10
-378.68383621424459
20
-338.85514509889055
30
0
10
-384.7101936611374
20
-338.06178953801719
30
0
10
-390.74355619668205
20
-336.23382336117237
30
0
10
-396.6946928771041
20
-333.34946917618311
30
0
10
-402.45089818462964
20
-329.53689022663525
30
0
10
-407.88001623383411
20
-325.07036664741628
30
0
10
-412.84667959272559
20
-320.29137547908641
30
0
10
-417.22572880208469
20
-315.54839351707659
30
0
10
-420.91680990765752
20
-311.13100627704716
30
0
10
-423.85945702881969
20
-307.20276240031063
30
0
10
-426.04745686663358
20
-303.74104090588401
30
0
10
-427.54762323789942
20
-300.45074850786597
30
0
10
-428.47869572741229
20
-296.96738099284028
30
0
10
-428.98545333876132
20
-293.1157386890286
30
0
10
-429.21548892408731
20
-289.11458050548964
30
0
10
-429.27851687863671
20
-286.54180151544148
30
0
10
-429.29699982453741
20
-285.46696799155916
30
0
10
-429.30110762344748
20
-285.20822678818161
30
0
10
-429.30110762344748
20
-285.19336055252671
30
0
0
LINE
5
116
100
AcDbEntity
8
0
100
AcDbLine
10
-429.30110762344754
20
-285.58008165757991
30
0
11
-429.30110762344759
21
-284.80663944747351
31
0
0
LINE
5
117
100
AcDbEntity
8
0
100
AcDbLine
10
-387.41920363526344
20
-355.68455508601289
30
0
11
-276.5220688636436
21
-297.54005157845819
31
0
0
CIRCLE
5
118
100
AcDbEntity
8
0
100
AcDbCircle
10
-353.39680901251631
20
-265.07520837081415
30
0
40
14.500000000000036
0
CIRCLE
5
119
100
AcDbEntity
8
0
100
AcDbCircle
10
16.313399176966392
20
296.03708800030893
30
0
40
14.500000000000036
0
CIRCLE
5
120
100
AcDbEntity
8
0
100
AcDbCircle
10
-237.32499946465475
20
10.873012691366984
30
0
40
14.500000000000036
0
CIRCLE
5
121
100
AcDbEntity
8
0
100
AcDbCircle
10
255.6219447879887
20
324.69679406150942
30
0
40
14.500000000000036
0
CIRCLE
5
122
100
AcDbEntity
8
0
100
AcDbCircle
10
195.37521565000063
20
120.88339123299846
30
0
40
14.500000000000036
0
CIRCLE
5
123
100
AcDbEntity
8
0
100
AcDbCircle
10
-57.148308609223442
20
-75.238939790664716
30
0
40
14.500000000000036
0
ENDSEC
0
SECTION
2
OBJECTS
0
DICTIONARY
5
C
100
AcDbDictionary
3
ACAD_GROUP
350
D
3
ACAD_MLINESTYLE
350
17
0
DICTIONARY
5
D
100
AcDbDictionary
0
DICTIONARY
5
1A
330
C
100
AcDbDictionary
0
DICTIONARY
5
17
100
AcDbDictionary
0
ENDSEC
0
EOF
